<mxfile host="app.diagrams.net" modified="2024-03-07T07:43:48.262Z" agent="Mozilla/5.0 (Windows NT 10.0; Win64; x64) AppleWebKit/537.36 (KHTML, like Gecko) Chrome/122.0.0.0 Safari/537.36" etag="D53yVPIuCVUHGKyLHyoP" version="24.0.2" type="device">
  <diagram name="Страница — 1" id="-9pAtfLcE_ETsI3dK04R">
    <mxGraphModel dx="1573" dy="914" grid="0" gridSize="10" guides="1" tooltips="1" connect="1" arrows="1" fold="1" page="0" pageScale="1" pageWidth="827" pageHeight="1169" math="0" shadow="0">
      <root>
        <mxCell id="0" />
        <mxCell id="1" parent="0" />
        <mxCell id="9kfF-B3YZtlGi7glEho4-22" style="edgeStyle=orthogonalEdgeStyle;rounded=0;orthogonalLoop=1;jettySize=auto;html=1;exitX=0.5;exitY=0;exitDx=0;exitDy=0;exitPerimeter=0;" edge="1" parent="1" source="9kfF-B3YZtlGi7glEho4-1">
          <mxGeometry relative="1" as="geometry">
            <mxPoint x="194" y="126" as="targetPoint" />
          </mxGeometry>
        </mxCell>
        <mxCell id="9kfF-B3YZtlGi7glEho4-1" value="Администратор" style="shape=umlActor;verticalLabelPosition=bottom;verticalAlign=top;html=1;outlineConnect=0;" vertex="1" parent="1">
          <mxGeometry x="179" y="126" width="30" height="60" as="geometry" />
        </mxCell>
        <mxCell id="9kfF-B3YZtlGi7glEho4-2" value="Создать склад" style="ellipse;whiteSpace=wrap;html=1;" vertex="1" parent="1">
          <mxGeometry x="-65" y="151" width="120" height="32" as="geometry" />
        </mxCell>
        <mxCell id="9kfF-B3YZtlGi7glEho4-3" value="Изменить информацию о складе" style="ellipse;whiteSpace=wrap;html=1;" vertex="1" parent="1">
          <mxGeometry x="-55" y="79.5" width="120" height="55" as="geometry" />
        </mxCell>
        <mxCell id="9kfF-B3YZtlGi7glEho4-4" value="Удалить склад" style="ellipse;whiteSpace=wrap;html=1;" vertex="1" parent="1">
          <mxGeometry x="-22" y="22" width="120" height="46" as="geometry" />
        </mxCell>
        <mxCell id="9kfF-B3YZtlGi7glEho4-5" value="Изменить информацию о пользователе" style="ellipse;whiteSpace=wrap;html=1;" vertex="1" parent="1">
          <mxGeometry x="196" y="-24" width="120" height="61" as="geometry" />
        </mxCell>
        <mxCell id="9kfF-B3YZtlGi7glEho4-6" value="Посмотреть информацию о пользователе" style="ellipse;whiteSpace=wrap;html=1;" vertex="1" parent="1">
          <mxGeometry x="242" y="41" width="120" height="58" as="geometry" />
        </mxCell>
        <mxCell id="9kfF-B3YZtlGi7glEho4-7" value="Посмотреть статистику" style="ellipse;whiteSpace=wrap;html=1;" vertex="1" parent="1">
          <mxGeometry x="272" y="112" width="120" height="43" as="geometry" />
        </mxCell>
        <mxCell id="9kfF-B3YZtlGi7glEho4-8" value="Создать заказ" style="ellipse;whiteSpace=wrap;html=1;" vertex="1" parent="1">
          <mxGeometry x="306" y="173" width="120" height="47" as="geometry" />
        </mxCell>
        <mxCell id="9kfF-B3YZtlGi7glEho4-9" value="Удалить заказ" style="ellipse;whiteSpace=wrap;html=1;" vertex="1" parent="1">
          <mxGeometry x="68" y="-22" width="120" height="44" as="geometry" />
        </mxCell>
        <mxCell id="9kfF-B3YZtlGi7glEho4-10" value="" style="endArrow=classic;html=1;rounded=0;" edge="1" parent="1" source="9kfF-B3YZtlGi7glEho4-1" target="9kfF-B3YZtlGi7glEho4-2">
          <mxGeometry width="50" height="50" relative="1" as="geometry">
            <mxPoint x="175" y="200" as="sourcePoint" />
            <mxPoint x="225" y="150" as="targetPoint" />
          </mxGeometry>
        </mxCell>
        <mxCell id="9kfF-B3YZtlGi7glEho4-11" value="" style="endArrow=classic;html=1;rounded=0;entryX=1;entryY=0.5;entryDx=0;entryDy=0;" edge="1" parent="1" source="9kfF-B3YZtlGi7glEho4-1" target="9kfF-B3YZtlGi7glEho4-3">
          <mxGeometry width="50" height="50" relative="1" as="geometry">
            <mxPoint x="175" y="200" as="sourcePoint" />
            <mxPoint x="225" y="150" as="targetPoint" />
          </mxGeometry>
        </mxCell>
        <mxCell id="9kfF-B3YZtlGi7glEho4-12" value="" style="endArrow=classic;html=1;rounded=0;" edge="1" parent="1" source="9kfF-B3YZtlGi7glEho4-1" target="9kfF-B3YZtlGi7glEho4-4">
          <mxGeometry width="50" height="50" relative="1" as="geometry">
            <mxPoint x="188" y="202" as="sourcePoint" />
            <mxPoint x="238" y="152" as="targetPoint" />
          </mxGeometry>
        </mxCell>
        <mxCell id="9kfF-B3YZtlGi7glEho4-13" value="" style="endArrow=classic;html=1;rounded=0;" edge="1" parent="1" source="9kfF-B3YZtlGi7glEho4-1" target="9kfF-B3YZtlGi7glEho4-8">
          <mxGeometry width="50" height="50" relative="1" as="geometry">
            <mxPoint x="175" y="200" as="sourcePoint" />
            <mxPoint x="225" y="150" as="targetPoint" />
          </mxGeometry>
        </mxCell>
        <mxCell id="9kfF-B3YZtlGi7glEho4-14" value="" style="endArrow=classic;html=1;rounded=0;" edge="1" parent="1" source="9kfF-B3YZtlGi7glEho4-1" target="9kfF-B3YZtlGi7glEho4-9">
          <mxGeometry width="50" height="50" relative="1" as="geometry">
            <mxPoint x="256" y="130" as="sourcePoint" />
            <mxPoint x="262" y="170" as="targetPoint" />
          </mxGeometry>
        </mxCell>
        <mxCell id="9kfF-B3YZtlGi7glEho4-15" value="" style="endArrow=classic;html=1;rounded=0;entryX=0.212;entryY=0.91;entryDx=0;entryDy=0;entryPerimeter=0;" edge="1" parent="1" source="9kfF-B3YZtlGi7glEho4-1" target="9kfF-B3YZtlGi7glEho4-5">
          <mxGeometry width="50" height="50" relative="1" as="geometry">
            <mxPoint x="175" y="200" as="sourcePoint" />
            <mxPoint x="225" y="150" as="targetPoint" />
          </mxGeometry>
        </mxCell>
        <mxCell id="9kfF-B3YZtlGi7glEho4-16" value="" style="endArrow=classic;html=1;rounded=0;" edge="1" parent="1" source="9kfF-B3YZtlGi7glEho4-1" target="9kfF-B3YZtlGi7glEho4-6">
          <mxGeometry width="50" height="50" relative="1" as="geometry">
            <mxPoint x="175" y="200" as="sourcePoint" />
            <mxPoint x="225" y="150" as="targetPoint" />
          </mxGeometry>
        </mxCell>
        <mxCell id="9kfF-B3YZtlGi7glEho4-17" value="" style="endArrow=classic;html=1;rounded=0;entryX=0;entryY=0.5;entryDx=0;entryDy=0;" edge="1" parent="1" source="9kfF-B3YZtlGi7glEho4-1" target="9kfF-B3YZtlGi7glEho4-7">
          <mxGeometry width="50" height="50" relative="1" as="geometry">
            <mxPoint x="175" y="200" as="sourcePoint" />
            <mxPoint x="225" y="150" as="targetPoint" />
          </mxGeometry>
        </mxCell>
        <mxCell id="9kfF-B3YZtlGi7glEho4-18" value="Посмотреть информацию о заказе" style="ellipse;whiteSpace=wrap;html=1;" vertex="1" parent="1">
          <mxGeometry x="238" y="220" width="120" height="54" as="geometry" />
        </mxCell>
        <mxCell id="9kfF-B3YZtlGi7glEho4-20" value="Курьер" style="shape=umlActor;verticalLabelPosition=bottom;verticalAlign=top;html=1;outlineConnect=0;" vertex="1" parent="1">
          <mxGeometry x="168" y="307" width="31" height="60" as="geometry" />
        </mxCell>
        <mxCell id="9kfF-B3YZtlGi7glEho4-23" value="" style="endArrow=classic;html=1;rounded=0;" edge="1" parent="1" source="9kfF-B3YZtlGi7glEho4-1" target="9kfF-B3YZtlGi7glEho4-18">
          <mxGeometry width="50" height="50" relative="1" as="geometry">
            <mxPoint x="185" y="224" as="sourcePoint" />
            <mxPoint x="235" y="174" as="targetPoint" />
          </mxGeometry>
        </mxCell>
        <mxCell id="9kfF-B3YZtlGi7glEho4-24" value="Пользователь" style="shape=umlActor;verticalLabelPosition=bottom;verticalAlign=top;html=1;outlineConnect=0;" vertex="1" parent="1">
          <mxGeometry x="402" y="307" width="30" height="60" as="geometry" />
        </mxCell>
        <mxCell id="9kfF-B3YZtlGi7glEho4-25" value="" style="endArrow=classic;html=1;rounded=0;entryX=0.788;entryY=0.941;entryDx=0;entryDy=0;entryPerimeter=0;" edge="1" parent="1" source="9kfF-B3YZtlGi7glEho4-24" target="9kfF-B3YZtlGi7glEho4-18">
          <mxGeometry width="50" height="50" relative="1" as="geometry">
            <mxPoint x="324" y="365" as="sourcePoint" />
            <mxPoint x="374" y="315" as="targetPoint" />
          </mxGeometry>
        </mxCell>
        <mxCell id="9kfF-B3YZtlGi7glEho4-26" value="" style="endArrow=classic;html=1;rounded=0;entryX=0.728;entryY=0.923;entryDx=0;entryDy=0;entryPerimeter=0;" edge="1" parent="1" source="9kfF-B3YZtlGi7glEho4-24" target="9kfF-B3YZtlGi7glEho4-8">
          <mxGeometry width="50" height="50" relative="1" as="geometry">
            <mxPoint x="217" y="292" as="sourcePoint" />
            <mxPoint x="267" y="242" as="targetPoint" />
          </mxGeometry>
        </mxCell>
        <mxCell id="9kfF-B3YZtlGi7glEho4-27" value="" style="endArrow=classic;html=1;rounded=0;" edge="1" parent="1" source="9kfF-B3YZtlGi7glEho4-20" target="9kfF-B3YZtlGi7glEho4-18">
          <mxGeometry width="50" height="50" relative="1" as="geometry">
            <mxPoint x="171" y="393" as="sourcePoint" />
            <mxPoint x="221" y="343" as="targetPoint" />
          </mxGeometry>
        </mxCell>
        <mxCell id="9kfF-B3YZtlGi7glEho4-28" value="Завершить заказ" style="ellipse;whiteSpace=wrap;html=1;" vertex="1" parent="1">
          <mxGeometry x="8" y="245" width="120" height="53" as="geometry" />
        </mxCell>
        <mxCell id="9kfF-B3YZtlGi7glEho4-29" value="" style="endArrow=classic;html=1;rounded=0;" edge="1" parent="1" source="9kfF-B3YZtlGi7glEho4-20" target="9kfF-B3YZtlGi7glEho4-28">
          <mxGeometry width="50" height="50" relative="1" as="geometry">
            <mxPoint x="171" y="393" as="sourcePoint" />
            <mxPoint x="221" y="343" as="targetPoint" />
          </mxGeometry>
        </mxCell>
        <mxCell id="9kfF-B3YZtlGi7glEho4-30" value="Взять заказ" style="ellipse;whiteSpace=wrap;html=1;" vertex="1" parent="1">
          <mxGeometry x="118" y="212" width="120" height="54" as="geometry" />
        </mxCell>
        <mxCell id="9kfF-B3YZtlGi7glEho4-31" value="Получить заказ" style="ellipse;whiteSpace=wrap;html=1;" vertex="1" parent="1">
          <mxGeometry x="242" y="333" width="120" height="40" as="geometry" />
        </mxCell>
        <mxCell id="9kfF-B3YZtlGi7glEho4-32" value="" style="endArrow=classic;html=1;rounded=0;" edge="1" parent="1" source="9kfF-B3YZtlGi7glEho4-24" target="9kfF-B3YZtlGi7glEho4-31">
          <mxGeometry width="50" height="50" relative="1" as="geometry">
            <mxPoint x="171" y="275" as="sourcePoint" />
            <mxPoint x="221" y="225" as="targetPoint" />
          </mxGeometry>
        </mxCell>
        <mxCell id="9kfF-B3YZtlGi7glEho4-33" value="" style="endArrow=classic;html=1;rounded=0;" edge="1" parent="1" source="9kfF-B3YZtlGi7glEho4-20" target="9kfF-B3YZtlGi7glEho4-30">
          <mxGeometry width="50" height="50" relative="1" as="geometry">
            <mxPoint x="171" y="275" as="sourcePoint" />
            <mxPoint x="221" y="225" as="targetPoint" />
          </mxGeometry>
        </mxCell>
        <mxCell id="9kfF-B3YZtlGi7glEho4-34" value="Посмотреть выполненные заказы" style="ellipse;whiteSpace=wrap;html=1;" vertex="1" parent="1">
          <mxGeometry x="426" y="37" width="120" height="58" as="geometry" />
        </mxCell>
        <mxCell id="9kfF-B3YZtlGi7glEho4-35" value="Посмотреть выполняющиеся заказы" style="ellipse;whiteSpace=wrap;html=1;" vertex="1" parent="1">
          <mxGeometry x="448" y="116" width="120" height="52" as="geometry" />
        </mxCell>
        <mxCell id="9kfF-B3YZtlGi7glEho4-37" value="" style="endArrow=block;endSize=16;endFill=0;html=1;rounded=0;" edge="1" parent="1" source="9kfF-B3YZtlGi7glEho4-34" target="9kfF-B3YZtlGi7glEho4-7">
          <mxGeometry width="160" relative="1" as="geometry">
            <mxPoint x="437" y="243" as="sourcePoint" />
            <mxPoint x="597" y="243" as="targetPoint" />
            <mxPoint as="offset" />
          </mxGeometry>
        </mxCell>
        <mxCell id="9kfF-B3YZtlGi7glEho4-38" value="" style="endArrow=block;endSize=16;endFill=0;html=1;rounded=0;" edge="1" parent="1" source="9kfF-B3YZtlGi7glEho4-35" target="9kfF-B3YZtlGi7glEho4-7">
          <mxGeometry width="160" relative="1" as="geometry">
            <mxPoint x="425" y="260" as="sourcePoint" />
            <mxPoint x="585" y="260" as="targetPoint" />
          </mxGeometry>
        </mxCell>
        <mxCell id="9kfF-B3YZtlGi7glEho4-39" value="Посмотреть информацию о заявках" style="ellipse;whiteSpace=wrap;html=1;" vertex="1" parent="1">
          <mxGeometry x="-38" y="314" width="120" height="53" as="geometry" />
        </mxCell>
        <mxCell id="9kfF-B3YZtlGi7glEho4-40" value="" style="endArrow=classic;html=1;rounded=0;entryX=1;entryY=0.5;entryDx=0;entryDy=0;" edge="1" parent="1" source="9kfF-B3YZtlGi7glEho4-20" target="9kfF-B3YZtlGi7glEho4-39">
          <mxGeometry width="50" height="50" relative="1" as="geometry">
            <mxPoint x="407" y="260" as="sourcePoint" />
            <mxPoint x="457" y="210" as="targetPoint" />
          </mxGeometry>
        </mxCell>
      </root>
    </mxGraphModel>
  </diagram>
</mxfile>
